<svg xmlns="http://www.w3.org/2000/svg" width="528" height="224" viewBox="0 0 528 224"><defs><pattern id="grid" width="40" height="40" patternUnits="userSpaceOnUse"><path d="M40 0H0V40" fill="none" stroke="#263746" stroke-width="1"/></pattern><pattern id="danger" width="20" height="20" patternUnits="userSpaceOnUse" patternTransform="rotate(45)"><rect width="10" height="20" fill="#ff5b63" fill-opacity=".16"/></pattern><pattern id="dynamic" width="24" height="24" patternUnits="userSpaceOnUse"><path d="M0 24L24 0" stroke="#24d4e8" stroke-opacity=".18" stroke-width="6"/></pattern></defs><rect width="528" height="224" fill="#101820"/><rect width="528" height="224" fill="url(#grid)"/><rect x="4" y="4" width="520" height="216" fill="none" stroke="#f4f7fa" stroke-width="8"/><rect x="22" y="18" width="484" height="84" rx="10" fill="#101820" fill-opacity=".94"/><text x="38" y="52" font-family="Arial,sans-serif" font-size="30" font-weight="700" fill="#f4f7fa"></text><text x="38" y="82" font-family="Arial,sans-serif" font-size="18" fill="#a8b6c2"></text><rect x="12" y="10" width="504" height="204" rx="12" fill="#101820" fill-opacity=".92"/><text x="24" y="34" text-anchor="start" font-family="Arial,sans-serif" font-size="22" font-weight="700" fill="#f4f7fa">RMB BUTTON ART — NORMAL</text><text x="504" y="34" text-anchor="end" font-family="Arial,sans-serif" font-size="14" font-weight="700" fill="#a8b6c2">SOURCE 528×224</text><rect x="48" y="50" width="432" height="142" rx="10" fill="#4ddd8b" fill-opacity="0.08" stroke="#4ddd8b" stroke-width="3" stroke-dasharray="12 8"/><text x="264.0" y="70" text-anchor="middle" font-family="Arial,sans-serif" font-size="13" font-weight="700" fill="#4ddd8b">suggested nine-slice inset: 48 px</text><rect x="79" y="86" width="369" height="72" rx="0" fill="#ffc857" fill-opacity="0.08" stroke="#ffc857" stroke-width="3" stroke-dasharray="10 7"/><text x="264.0" y="116" text-anchor="middle" font-family="Arial,sans-serif" font-size="16" font-weight="700" fill="#ffc857">STANDARD NATIVE LABEL ZONE</text><text x="264.0" y="140" text-anchor="middle" font-family="Arial,sans-serif" font-size="13" font-weight="700" fill="#24d4e8">IMMERSIVE ART MAY SUPPLY LABEL</text><text x="264.0" y="181" text-anchor="middle" font-family="Arial,sans-serif" font-size="12" font-weight="700" fill="#24d4e8">ASSET STATE: NORMAL — VISUAL CHANGE ONLY</text><text x="264.0" y="210" text-anchor="middle" font-family="Arial,sans-serif" font-size="12" fill="#a8b6c2">runtime: width 34%; height clamp(22%, 56…88 dp)</text></svg>