<svg xmlns="http://www.w3.org/2000/svg" width="1240" height="360" viewBox="0 0 1240 360"><defs><pattern id="grid" width="40" height="40" patternUnits="userSpaceOnUse"><path d="M40 0H0V40" fill="none" stroke="#263746" stroke-width="1"/></pattern><pattern id="danger" width="20" height="20" patternUnits="userSpaceOnUse" patternTransform="rotate(45)"><rect width="10" height="20" fill="#ff5b63" fill-opacity=".16"/></pattern><pattern id="dynamic" width="24" height="24" patternUnits="userSpaceOnUse"><path d="M0 24L24 0" stroke="#24d4e8" stroke-opacity=".18" stroke-width="6"/></pattern></defs><rect width="1240" height="360" fill="#101820"/><rect width="1240" height="360" fill="url(#grid)"/><rect x="4" y="4" width="1232" height="352" fill="none" stroke="#f4f7fa" stroke-width="8"/><rect x="22" y="18" width="1150" height="84" rx="10" fill="#101820" fill-opacity=".94"/><text x="38" y="52" font-family="Arial,sans-serif" font-size="30" font-weight="700" fill="#f4f7fa">PANEL FRAME / panel.frame</text><text x="38" y="82" font-family="Arial,sans-serif" font-size="18" fill="#a8b6c2">Nine-slice source 1240×360 — runtime draws border patches only around Companion-family pages</text><rect x="64" y="64" width="1112" height="232" rx="0" fill="#ff5b63" fill-opacity="0.05" stroke="#ff5b63" stroke-width="4" stroke-dasharray="18 12"/><text x="76" y="92" text-anchor="start" font-family="Arial,sans-serif" font-size="19" font-weight="700" fill="#ff5b63">CENTER PATCH OMITTED BY RUNTIME — native content remains visible</text><rect x="0" y="0" width="1240" height="360" rx="0" fill="#4ddd8b" fill-opacity="0.035" stroke="#4ddd8b" stroke-width="5"/><line x1="64" y1="0" x2="64" y2="360" stroke="#ffc857" stroke-width="3" stroke-dasharray="10 8"/><line x1="1176" y1="0" x2="1176" y2="360" stroke="#ffc857" stroke-width="3" stroke-dasharray="10 8"/><line x1="0" y1="64" x2="1240" y2="64" stroke="#ffc857" stroke-width="3" stroke-dasharray="10 8"/><line x1="0" y1="296" x2="1240" y2="296" stroke="#ffc857" stroke-width="3" stroke-dasharray="10 8"/><text x="620" y="190" text-anchor="middle" font-family="Arial,sans-serif" font-size="22" font-weight="700" fill="#ff5b63">KEEP CENTER TRANSPARENT • ARTWORK IS NON-INTERACTIVE</text><text x="620" y="338" text-anchor="middle" font-family="Arial,sans-serif" font-size="17" font-weight="700" fill="#4ddd8b">GREEN OUTER BAND / AMBER GUIDES = 64 px SUGGESTED NINE-SLICE BORDER</text></svg>